<svg xmlns="http://www.w3.org/2000/svg" viewBox="0 0 593.6 471.4" width="593.6" height="471.4">
  <rect x="0" y="0" width="593.6" height="471.4" fill="#1a1b26" rx="6" ry="6"/>
  <g class="backgrounds">
    <rect x="16" y="16" width="561.6" height="16.9" fill="#1e1e23"/>
    <rect x="16" y="32.9" width="561.6" height="16.9" fill="#1e1e23"/>
    <rect x="16" y="83.6" width="561.6" height="16.9" fill="#1e1e23"/>
    <rect x="16" y="100.5" width="156" height="16.9" fill="#1e1e23"/>
    <rect x="289" y="100.5" width="23.4" height="16.9" fill="#1e1e23"/>
    <rect x="421.6" y="100.5" width="156" height="16.9" fill="#1e1e23"/>
    <rect x="16" y="117.4" width="156" height="16.9" fill="#1e1e23"/>
    <rect x="289" y="117.4" width="23.4" height="16.9" fill="#1e1e23"/>
    <rect x="413.8" y="117.4" width="163.8" height="16.9" fill="#1e1e23"/>
    <rect x="16" y="134.3" width="163.8" height="16.9" fill="#1e1e23"/>
    <rect x="296.8" y="134.3" width="23.4" height="16.9" fill="#1e1e23"/>
    <rect x="406" y="134.3" width="171.6" height="16.9" fill="#1e1e23"/>
    <rect x="16" y="151.2" width="148.2" height="16.9" fill="#1e1e23"/>
    <rect x="281.2" y="151.2" width="23.4" height="16.9" fill="#1e1e23"/>
    <rect x="429.4" y="151.2" width="148.2" height="16.9" fill="#1e1e23"/>
    <rect x="16" y="168.1" width="163.8" height="16.9" fill="#1e1e23"/>
    <rect x="296.8" y="168.1" width="23.4" height="16.9" fill="#1e1e23"/>
    <rect x="406" y="168.1" width="171.6" height="16.9" fill="#1e1e23"/>
    <rect x="16" y="185" width="140.4" height="16.9" fill="#1e1e23"/>
    <rect x="273.4" y="185" width="23.4" height="16.9" fill="#1e1e23"/>
    <rect x="437.2" y="185" width="140.4" height="16.9" fill="#1e1e23"/>
    <rect x="16" y="201.9" width="148.2" height="16.9" fill="#1e1e23"/>
    <rect x="281.2" y="201.9" width="23.4" height="16.9" fill="#1e1e23"/>
    <rect x="421.6" y="201.9" width="156" height="16.9" fill="#1e1e23"/>
    <rect x="16" y="218.8" width="163.8" height="16.9" fill="#1e1e23"/>
    <rect x="296.8" y="218.8" width="23.4" height="16.9" fill="#1e1e23"/>
    <rect x="406" y="218.8" width="171.6" height="16.9" fill="#1e1e23"/>
    <rect x="16" y="235.7" width="140.4" height="16.9" fill="#1e1e23"/>
    <rect x="273.4" y="235.7" width="23.4" height="16.9" fill="#1e1e23"/>
    <rect x="429.4" y="235.7" width="148.2" height="16.9" fill="#1e1e23"/>
    <rect x="16" y="252.6" width="195" height="16.9" fill="#1e1e23"/>
    <rect x="328" y="252.6" width="23.4" height="16.9" fill="#1e1e23"/>
    <rect x="382.6" y="252.6" width="195" height="16.9" fill="#1e1e23"/>
    <rect x="16" y="269.5" width="132.6" height="16.9" fill="#1e1e23"/>
    <rect x="265.6" y="269.5" width="23.4" height="16.9" fill="#1e1e23"/>
    <rect x="445" y="269.5" width="132.6" height="16.9" fill="#1e1e23"/>
    <rect x="16" y="286.4" width="171.6" height="16.9" fill="#1e1e23"/>
    <rect x="304.6" y="286.4" width="23.4" height="16.9" fill="#1e1e23"/>
    <rect x="406" y="286.4" width="171.6" height="16.9" fill="#1e1e23"/>
    <rect x="16" y="303.3" width="156" height="16.9" fill="#1e1e23"/>
    <rect x="289" y="303.3" width="23.4" height="16.9" fill="#1e1e23"/>
    <rect x="421.6" y="303.3" width="156" height="16.9" fill="#1e1e23"/>
    <rect x="16" y="320.2" width="187.2" height="16.9" fill="#1e1e23"/>
    <rect x="320.2" y="320.2" width="23.4" height="16.9" fill="#1e1e23"/>
    <rect x="382.6" y="320.2" width="195" height="16.9" fill="#1e1e23"/>
    <rect x="16" y="337.1" width="148.2" height="16.9" fill="#1e1e23"/>
    <rect x="281.2" y="337.1" width="23.4" height="16.9" fill="#1e1e23"/>
    <rect x="429.4" y="337.1" width="148.2" height="16.9" fill="#1e1e23"/>
    <rect x="16" y="354" width="561.6" height="16.9" fill="#1e1e23"/>
    <rect x="16" y="370.9" width="561.6" height="16.9" fill="#1e1e23"/>
    <rect x="16" y="387.8" width="561.6" height="16.9" fill="#26262d"/>
    <rect x="16" y="404.7" width="561.6" height="16.9" fill="#26262d"/>
    <rect x="16" y="421.6" width="7.8" height="16.9" fill="#26262d"/>
    <rect x="23.8" y="421.6" width="39" height="16.9" fill="#a9b1d6"/>
    <rect x="62.8" y="421.6" width="54.6" height="16.9" fill="#26262d"/>
    <rect x="117.4" y="421.6" width="15.6" height="16.9" fill="#26262d"/>
    <rect x="133" y="421.6" width="46.8" height="16.9" fill="#a9b1d6"/>
    <rect x="179.8" y="421.6" width="39" height="16.9" fill="#26262d"/>
    <rect x="218.8" y="421.6" width="15.6" height="16.9" fill="#26262d"/>
    <rect x="234.4" y="421.6" width="23.4" height="16.9" fill="#a9b1d6"/>
    <rect x="257.8" y="421.6" width="31.2" height="16.9" fill="#26262d"/>
    <rect x="289" y="421.6" width="15.6" height="16.9" fill="#26262d"/>
    <rect x="304.6" y="421.6" width="23.4" height="16.9" fill="#a9b1d6"/>
    <rect x="328" y="421.6" width="46.8" height="16.9" fill="#26262d"/>
    <rect x="374.8" y="421.6" width="15.6" height="16.9" fill="#26262d"/>
    <rect x="390.4" y="421.6" width="23.4" height="16.9" fill="#a9b1d6"/>
    <rect x="413.8" y="421.6" width="23.4" height="16.9" fill="#26262d"/>
    <rect x="437.2" y="421.6" width="15.6" height="16.9" fill="#26262d"/>
    <rect x="452.8" y="421.6" width="23.4" height="16.9" fill="#a9b1d6"/>
    <rect x="476.2" y="421.6" width="54.6" height="16.9" fill="#26262d"/>
    <rect x="530.8" y="421.6" width="15.6" height="16.9" fill="#26262d"/>
    <rect x="546.4" y="421.6" width="23.4" height="16.9" fill="#a9b1d6"/>
    <rect x="569.8" y="421.6" width="7.8" height="16.9" fill="#26262d"/>
    <rect x="16" y="438.5" width="7.8" height="16.9" fill="#26262d"/>
    <rect x="23.8" y="438.5" width="15.6" height="16.9" fill="#26262d"/>
    <rect x="39.4" y="438.5" width="23.4" height="16.9" fill="#a9b1d6"/>
    <rect x="62.8" y="438.5" width="39" height="16.9" fill="#26262d"/>
    <rect x="101.8" y="438.5" width="15.6" height="16.9" fill="#26262d"/>
    <rect x="117.4" y="438.5" width="62.4" height="16.9" fill="#a9b1d6"/>
    <rect x="179.8" y="438.5" width="46.8" height="16.9" fill="#26262d"/>
    <rect x="226.6" y="438.5" width="15.6" height="16.9" fill="#26262d"/>
    <rect x="242.2" y="438.5" width="54.6" height="16.9" fill="#a9b1d6"/>
    <rect x="296.8" y="438.5" width="46.8" height="16.9" fill="#26262d"/>
    <rect x="343.6" y="438.5" width="15.6" height="16.9" fill="#26262d"/>
    <rect x="359.2" y="438.5" width="39" height="16.9" fill="#a9b1d6"/>
    <rect x="398.2" y="438.5" width="46.8" height="16.9" fill="#26262d"/>
    <rect x="445" y="438.5" width="15.6" height="16.9" fill="#26262d"/>
    <rect x="460.6" y="438.5" width="23.4" height="16.9" fill="#a9b1d6"/>
    <rect x="484" y="438.5" width="39" height="16.9" fill="#26262d"/>
    <rect x="523" y="438.5" width="54.6" height="16.9" fill="#26262d"/>
  </g>
  <g class="glyphs">
    <line x1="211" y1="75.15" x2="214.9" y2="75.15" stroke="#6699ff" stroke-width="1"/><line x1="214.9" y1="75.15" x2="218.8" y2="75.15" stroke="#6699ff" stroke-width="1"/>
    <line x1="218.8" y1="75.15" x2="222.7" y2="75.15" stroke="#6699ff" stroke-width="1"/><line x1="222.7" y1="75.15" x2="226.6" y2="75.15" stroke="#6699ff" stroke-width="1"/>
    <line x1="226.6" y1="75.15" x2="230.5" y2="75.15" stroke="#6699ff" stroke-width="1"/><line x1="230.5" y1="75.15" x2="234.4" y2="75.15" stroke="#6699ff" stroke-width="1"/>
    <line x1="234.4" y1="75.15" x2="238.3" y2="75.15" stroke="#6699ff" stroke-width="1"/><line x1="238.3" y1="75.15" x2="242.2" y2="75.15" stroke="#6699ff" stroke-width="1"/>
    <line x1="242.2" y1="75.15" x2="246.1" y2="75.15" stroke="#6699ff" stroke-width="1"/><line x1="246.1" y1="75.15" x2="250" y2="75.15" stroke="#6699ff" stroke-width="1"/>
    <line x1="250" y1="75.15" x2="253.9" y2="75.15" stroke="#6699ff" stroke-width="1"/><line x1="253.9" y1="75.15" x2="257.8" y2="75.15" stroke="#6699ff" stroke-width="1"/>
    <line x1="257.8" y1="75.15" x2="261.7" y2="75.15" stroke="#6699ff" stroke-width="1"/><line x1="261.7" y1="75.15" x2="265.6" y2="75.15" stroke="#6699ff" stroke-width="1"/>
    <line x1="265.6" y1="75.15" x2="269.5" y2="75.15" stroke="#6699ff" stroke-width="1"/><line x1="269.5" y1="75.15" x2="273.4" y2="75.15" stroke="#6699ff" stroke-width="1"/>
    <line x1="273.4" y1="75.15" x2="277.3" y2="75.15" stroke="#6699ff" stroke-width="1"/><line x1="277.3" y1="75.15" x2="281.2" y2="75.15" stroke="#6699ff" stroke-width="1"/>
    <line x1="281.2" y1="75.15" x2="285.1" y2="75.15" stroke="#6699ff" stroke-width="1"/><line x1="285.1" y1="75.15" x2="289" y2="75.15" stroke="#6699ff" stroke-width="1"/>
    <line x1="289" y1="75.15" x2="292.9" y2="75.15" stroke="#6699ff" stroke-width="1"/><line x1="292.9" y1="75.15" x2="296.8" y2="75.15" stroke="#6699ff" stroke-width="1"/>
    <line x1="296.8" y1="75.15" x2="300.7" y2="75.15" stroke="#6699ff" stroke-width="1"/><line x1="300.7" y1="75.15" x2="304.6" y2="75.15" stroke="#6699ff" stroke-width="1"/>
    <line x1="304.6" y1="75.15" x2="308.5" y2="75.15" stroke="#6699ff" stroke-width="1"/><line x1="308.5" y1="75.15" x2="312.4" y2="75.15" stroke="#6699ff" stroke-width="1"/>
    <line x1="312.4" y1="75.15" x2="316.3" y2="75.15" stroke="#6699ff" stroke-width="1"/><line x1="316.3" y1="75.15" x2="320.2" y2="75.15" stroke="#6699ff" stroke-width="1"/>
    <line x1="320.2" y1="75.15" x2="324.1" y2="75.15" stroke="#6699ff" stroke-width="1"/><line x1="324.1" y1="75.15" x2="328" y2="75.15" stroke="#6699ff" stroke-width="1"/>
    <line x1="328" y1="75.15" x2="331.9" y2="75.15" stroke="#6699ff" stroke-width="1"/><line x1="331.9" y1="75.15" x2="335.8" y2="75.15" stroke="#6699ff" stroke-width="1"/>
    <line x1="335.8" y1="75.15" x2="339.7" y2="75.15" stroke="#6699ff" stroke-width="1"/><line x1="339.7" y1="75.15" x2="343.6" y2="75.15" stroke="#6699ff" stroke-width="1"/>
    <line x1="343.6" y1="75.15" x2="347.5" y2="75.15" stroke="#6699ff" stroke-width="1"/><line x1="347.5" y1="75.15" x2="351.4" y2="75.15" stroke="#6699ff" stroke-width="1"/>
    <line x1="351.4" y1="75.15" x2="355.3" y2="75.15" stroke="#6699ff" stroke-width="1"/><line x1="355.3" y1="75.15" x2="359.2" y2="75.15" stroke="#6699ff" stroke-width="1"/>
    <line x1="359.2" y1="75.15" x2="363.1" y2="75.15" stroke="#6699ff" stroke-width="1"/><line x1="363.1" y1="75.15" x2="367" y2="75.15" stroke="#6699ff" stroke-width="1"/>
    <line x1="367" y1="75.15" x2="370.9" y2="75.15" stroke="#6699ff" stroke-width="1"/><line x1="370.9" y1="75.15" x2="374.8" y2="75.15" stroke="#6699ff" stroke-width="1"/>
    <line x1="374.8" y1="75.15" x2="378.7" y2="75.15" stroke="#6699ff" stroke-width="1"/><line x1="378.7" y1="75.15" x2="382.6" y2="75.15" stroke="#6699ff" stroke-width="1"/>
  </g>
  <g class="text">
    <text y="29" font-family="'SF Mono', 'Monaco', 'Menlo', 'Ubuntu Mono', 'Consolas', 'Courier New', monospace" font-size="13" xml:space="preserve"><tspan x="16" fill="#9999a5">                                                                        </tspan></text>
    <text y="45.9" font-family="'SF Mono', 'Monaco', 'Menlo', 'Ubuntu Mono', 'Consolas', 'Courier New', monospace" font-size="13" xml:space="preserve"><tspan x="16" fill="#9999a5">                                                                        </tspan></text>
    <text y="62.8" font-family="'SF Mono', 'Monaco', 'Menlo', 'Ubuntu Mono', 'Consolas', 'Courier New', monospace" font-size="13" xml:space="preserve"><tspan x="16" fill="#6699ff" font-weight="bold">                           Keyboard Shortcuts                           </tspan></text>
    <text y="79.7" font-family="'SF Mono', 'Monaco', 'Menlo', 'Ubuntu Mono', 'Consolas', 'Courier New', monospace" font-size="13" xml:space="preserve"><tspan x="16" fill="#6699ff">                         </tspan><tspan x="382.6" fill="#6699ff">                         </tspan></text>
    <text y="96.6" font-family="'SF Mono', 'Monaco', 'Menlo', 'Ubuntu Mono', 'Consolas', 'Courier New', monospace" font-size="13" xml:space="preserve"><tspan x="16" fill="#9999a5">                                                                        </tspan></text>
    <text y="113.5" font-family="'SF Mono', 'Monaco', 'Menlo', 'Ubuntu Mono', 'Consolas', 'Courier New', monospace" font-size="13" xml:space="preserve"><tspan x="16" fill="#9999a5">                    </tspan><tspan x="172" fill="#6699ff">Tab / Shift+Tab</tspan><tspan x="289" fill="#9999a5">   </tspan><tspan x="312.4" fill="#e5e5ea">Select monitor</tspan><tspan x="421.6" fill="#9999a5">                    </tspan></text>
    <text y="130.4" font-family="'SF Mono', 'Monaco', 'Menlo', 'Ubuntu Mono', 'Consolas', 'Courier New', monospace" font-size="13" xml:space="preserve"><tspan x="16" fill="#9999a5">                    </tspan><tspan x="172" fill="#6699ff">     Arrow keys</tspan><tspan x="289" fill="#9999a5">   </tspan><tspan x="312.4" fill="#e5e5ea">Move (coarse)</tspan><tspan x="413.8" fill="#9999a5">                     </tspan></text>
    <text y="147.3" font-family="'SF Mono', 'Monaco', 'Menlo', 'Ubuntu Mono', 'Consolas', 'Courier New', monospace" font-size="13" xml:space="preserve"><tspan x="16" fill="#9999a5">                     </tspan><tspan x="179.8" fill="#6699ff"> Shift + Arrows</tspan><tspan x="296.8" fill="#9999a5">   </tspan><tspan x="320.2" fill="#e5e5ea">Move (fine)</tspan><tspan x="406" fill="#9999a5">                      </tspan></text>
    <text y="164.2" font-family="'SF Mono', 'Monaco', 'Menlo', 'Ubuntu Mono', 'Consolas', 'Courier New', monospace" font-size="13" xml:space="preserve"><tspan x="16" fill="#9999a5">                   </tspan><tspan x="164.2" fill="#6699ff">              r</tspan><tspan x="281.2" fill="#9999a5">   </tspan><tspan x="304.6" fill="#e5e5ea">Cycle resolution</tspan><tspan x="429.4" fill="#9999a5">                   </tspan></text>
    <text y="181.1" font-family="'SF Mono', 'Monaco', 'Menlo', 'Ubuntu Mono', 'Consolas', 'Courier New', monospace" font-size="13" xml:space="preserve"><tspan x="16" fill="#9999a5">                     </tspan><tspan x="179.8" fill="#6699ff">              s</tspan><tspan x="296.8" fill="#9999a5">   </tspan><tspan x="320.2" fill="#e5e5ea">Cycle scale</tspan><tspan x="406" fill="#9999a5">                      </tspan></text>
    <text y="198" font-family="'SF Mono', 'Monaco', 'Menlo', 'Ubuntu Mono', 'Consolas', 'Courier New', monospace" font-size="13" xml:space="preserve"><tspan x="16" fill="#9999a5">                  </tspan><tspan x="156.4" fill="#6699ff">              f</tspan><tspan x="273.4" fill="#9999a5">   </tspan><tspan x="296.8" fill="#e5e5ea">Cycle refresh rate</tspan><tspan x="437.2" fill="#9999a5">                  </tspan></text>
    <text y="214.9" font-family="'SF Mono', 'Monaco', 'Menlo', 'Ubuntu Mono', 'Consolas', 'Courier New', monospace" font-size="13" xml:space="preserve"><tspan x="16" fill="#9999a5">                   </tspan><tspan x="164.2" fill="#6699ff">              t</tspan><tspan x="281.2" fill="#9999a5">   </tspan><tspan x="304.6" fill="#e5e5ea">Cycle transform</tspan><tspan x="421.6" fill="#9999a5">                    </tspan></text>
    <text y="231.8" font-family="'SF Mono', 'Monaco', 'Menlo', 'Ubuntu Mono', 'Consolas', 'Courier New', monospace" font-size="13" xml:space="preserve"><tspan x="16" fill="#9999a5">                     </tspan><tspan x="179.8" fill="#6699ff">              p</tspan><tspan x="296.8" fill="#9999a5">   </tspan><tspan x="320.2" fill="#e5e5ea">Set primary</tspan><tspan x="406" fill="#9999a5">                      </tspan></text>
    <text y="248.7" font-family="'SF Mono', 'Monaco', 'Menlo', 'Ubuntu Mono', 'Consolas', 'Courier New', monospace" font-size="13" xml:space="preserve"><tspan x="16" fill="#9999a5">                  </tspan><tspan x="156.4" fill="#6699ff">              i</tspan><tspan x="273.4" fill="#9999a5">   </tspan><tspan x="296.8" fill="#e5e5ea">Identify monitors</tspan><tspan x="429.4" fill="#9999a5">                   </tspan></text>
    <text y="265.6" font-family="'SF Mono', 'Monaco', 'Menlo', 'Ubuntu Mono', 'Consolas', 'Courier New', monospace" font-size="13" xml:space="preserve"><tspan x="16" fill="#9999a5">                         </tspan><tspan x="211" fill="#6699ff">              u</tspan><tspan x="328" fill="#9999a5">   </tspan><tspan x="351.4" fill="#e5e5ea">Undo</tspan><tspan x="382.6" fill="#9999a5">                         </tspan></text>
    <text y="282.5" font-family="'SF Mono', 'Monaco', 'Menlo', 'Ubuntu Mono', 'Consolas', 'Courier New', monospace" font-size="13" xml:space="preserve"><tspan x="16" fill="#9999a5">                 </tspan><tspan x="148.6" fill="#6699ff">         Ctrl+r</tspan><tspan x="265.6" fill="#9999a5">   </tspan><tspan x="289" fill="#e5e5ea">Reset to saved state</tspan><tspan x="445" fill="#9999a5">                 </tspan></text>
    <text y="299.4" font-family="'SF Mono', 'Monaco', 'Menlo', 'Ubuntu Mono', 'Consolas', 'Courier New', monospace" font-size="13" xml:space="preserve"><tspan x="16" fill="#9999a5">                      </tspan><tspan x="187.6" fill="#6699ff">   Ctrl+Shift+r</tspan><tspan x="304.6" fill="#9999a5">   </tspan><tspan x="328" fill="#e5e5ea">Hard reset</tspan><tspan x="406" fill="#9999a5">                      </tspan></text>
    <text y="316.3" font-family="'SF Mono', 'Monaco', 'Menlo', 'Ubuntu Mono', 'Consolas', 'Courier New', monospace" font-size="13" xml:space="preserve"><tspan x="16" fill="#9999a5">                    </tspan><tspan x="172" fill="#6699ff">          Enter</tspan><tspan x="289" fill="#9999a5">   </tspan><tspan x="312.4" fill="#e5e5ea">Apply &amp; reload</tspan><tspan x="421.6" fill="#9999a5">                    </tspan></text>
    <text y="333.2" font-family="'SF Mono', 'Monaco', 'Menlo', 'Ubuntu Mono', 'Consolas', 'Courier New', monospace" font-size="13" xml:space="preserve"><tspan x="16" fill="#9999a5">                        </tspan><tspan x="203.2" fill="#6699ff">         Escape</tspan><tspan x="320.2" fill="#9999a5">   </tspan><tspan x="343.6" fill="#e5e5ea">Close</tspan><tspan x="382.6" fill="#9999a5">                         </tspan></text>
    <text y="350.1" font-family="'SF Mono', 'Monaco', 'Menlo', 'Ubuntu Mono', 'Consolas', 'Courier New', monospace" font-size="13" xml:space="preserve"><tspan x="16" fill="#9999a5">                   </tspan><tspan x="164.2" fill="#6699ff">          h / ?</tspan><tspan x="281.2" fill="#9999a5">   </tspan><tspan x="304.6" fill="#e5e5ea">Toggle this help</tspan><tspan x="429.4" fill="#9999a5">                   </tspan></text>
    <text y="367" font-family="'SF Mono', 'Monaco', 'Menlo', 'Ubuntu Mono', 'Consolas', 'Courier New', monospace" font-size="13" xml:space="preserve"><tspan x="16" fill="#9999a5">                                                                        </tspan></text>
    <text y="383.9" font-family="'SF Mono', 'Monaco', 'Menlo', 'Ubuntu Mono', 'Consolas', 'Courier New', monospace" font-size="13" xml:space="preserve"><tspan x="16" fill="#9999a5">                                                                        </tspan></text>
    <text y="400.8" font-family="'SF Mono', 'Monaco', 'Menlo', 'Ubuntu Mono', 'Consolas', 'Courier New', monospace" font-size="13" xml:space="preserve"><tspan x="16" fill="#e5e5ea"> Selected: HDMI-A-1  Res: 2560x1440  Refresh: 60Hz  Scale: 1.0x         </tspan></text>
    <text y="417.7" font-family="'SF Mono', 'Monaco', 'Menlo', 'Ubuntu Mono', 'Consolas', 'Courier New', monospace" font-size="13" xml:space="preserve"><tspan x="16" fill="#e5e5ea"> Position: 0,0  Transform: Normal                                       </tspan></text>
    <text y="434.6" font-family="'SF Mono', 'Monaco', 'Menlo', 'Ubuntu Mono', 'Consolas', 'Courier New', monospace" font-size="13" xml:space="preserve"><tspan x="16" fill="#9999a5"> </tspan><tspan x="23.8" fill="#1a1b26"> Tab </tspan><tspan x="62.8" fill="#9999a5"> Select</tspan><tspan x="117.4" fill="#9999a5">  </tspan><tspan x="133" fill="#1a1b26"> ←↑↓→ </tspan><tspan x="179.8" fill="#9999a5"> Move</tspan><tspan x="218.8" fill="#9999a5">  </tspan><tspan x="234.4" fill="#1a1b26"> r </tspan><tspan x="257.8" fill="#9999a5"> Res</tspan><tspan x="289" fill="#9999a5">  </tspan><tspan x="304.6" fill="#1a1b26"> s </tspan><tspan x="328" fill="#9999a5"> Scale</tspan><tspan x="374.8" fill="#9999a5">  </tspan><tspan x="390.4" fill="#1a1b26"> f </tspan><tspan x="413.8" fill="#9999a5"> Hz</tspan><tspan x="437.2" fill="#9999a5">  </tspan><tspan x="452.8" fill="#1a1b26"> t </tspan><tspan x="476.2" fill="#9999a5"> Rotate</tspan><tspan x="530.8" fill="#9999a5">  </tspan><tspan x="546.4" fill="#1a1b26"> p </tspan><tspan x="569.8" fill="#9999a5"> </tspan></text>
    <text y="451.5" font-family="'SF Mono', 'Monaco', 'Menlo', 'Ubuntu Mono', 'Consolas', 'Courier New', monospace" font-size="13" xml:space="preserve"><tspan x="16" fill="#9999a5"> </tspan><tspan x="23.8" fill="#9999a5">  </tspan><tspan x="39.4" fill="#1a1b26"> u </tspan><tspan x="62.8" fill="#9999a5"> Undo</tspan><tspan x="101.8" fill="#9999a5">  </tspan><tspan x="117.4" fill="#1a1b26"> Ctrl+r </tspan><tspan x="179.8" fill="#9999a5"> Reset</tspan><tspan x="226.6" fill="#9999a5">  </tspan><tspan x="242.2" fill="#1a1b26"> Enter </tspan><tspan x="296.8" fill="#9999a5"> Apply</tspan><tspan x="343.6" fill="#9999a5">  </tspan><tspan x="359.2" fill="#1a1b26"> Esc </tspan><tspan x="398.2" fill="#9999a5"> Close</tspan><tspan x="445" fill="#9999a5">  </tspan><tspan x="460.6" fill="#1a1b26"> h </tspan><tspan x="484" fill="#9999a5"> Help</tspan><tspan x="523" fill="#9999a5">       </tspan></text>
  </g>
</svg>